<svg version="1.0" xmlns="http://www.w3.org/2000/svg" width="256" height="256" viewBox="0 0 1024 1024"><style>path {fill: #111;}@media (prefers-color-scheme: dark) {path { fill: #eee; }}</style><path d="M635.6 95.4c-3.6 1.9-10.9 6.4-16.1 10.1-10.6 7.4-17.9 11-24.2 12-2.4.4-4.3 1-4.3 1.5 0 1.1 7 7.3 10.8 9.6 1.8 1 3.2 2.2 3.2 2.6 0 1.1-5.6 3.8-7.8 3.8-5 0-2.8 4.4 3.5 7.2 3.3 1.5 5.8 1.9 8.8 1.5 3.9-.6 4.3-.4 5.4 2.1.7 1.5 3.1 5.6 5.5 9.2 2.4 3.6 5.8 8.9 7.6 11.7 2.1 3.5 3.9 5.3 5.2 5.3 2.7 0 7.2 2.5 15.1 8.2l6.8 5 5.2-3.5c2.9-1.9 6.9-4.8 8.9-6.3 3.5-2.5 4.1-2.6 7.6-1.6 6.8 2.1 7.4 2.9 5.7 8.7-.9 2.7-3.1 16.2-5 30-1.9 13.7-4.5 30.5-5.7 37.2-1.8 10.5-2.3 12-3.7 11.2-.9-.5-6.9-3.3-13.3-6.4l-11.7-5.5.6-7c.4-4.6.1-8.4-.7-11-1.2-3.8-1.2-4.1 1.2-5.9 1.3-1.1 3.2-3.8 4.2-6 1.8-3.9 1.8-4-.4-7.1-3-4.3-9.5-8.8-13.6-9.6-1.8-.3-4.9-.1-6.8.6-2.9.9-3.6 1.7-3.7 3.8 0 1.5-.6 4.3-1.3 6.2-1.4 3.8-1.5 3.8-9.8 2.5-3.7-.6-5.3-.4-7.2.9-3.2 2-8.6 10.6-11 17.1-1 2.7-2.7 7.3-3.9 10.2-1.9 4.9-1.9 5.3-.3 7.7.9 1.4 2.3 2.6 3.1 2.6 3.8 0-.7 6.4-9 12.6-4.2 3.1-13.5 12.2-20.7 20.2-13 14.4-13.1 14.5-13 19.1.1 6.4 3.7 15.6 7.9 20.2 1.9 2.1 6 5.1 9.1 6.6 4.8 2.4 6.9 2.8 13.7 2.8 10.8-.1 14.8-2 17.1-8.3 1-2.6 4.3-10.8 7.5-18.2 3.1-7.4 6.9-17.8 8.4-23 1.5-5.2 3.1-10.2 3.6-11 .5-.8 2-3.6 3.4-6.3 1.4-2.6 2.8-4.7 3.1-4.7.3 0 2.9 2 5.7 4.3 4.7 3.9 38.9 29.7 51.4 38.8l4.9 3.5 4.6-7c5.2-8.1 8.6-14.7 17-33 3.3-7.2 6.8-14 7.9-15.2 1.9-2.1 1.9-2.1-1.7-6.8-3.5-4.6-12.6-22.6-13.9-27.6-.5-2.1-.1-1.9 2.7 1.5 6.9 8.3 12.5 14.5 26.4 29.2 7.9 8.3 14.4 15.6 14.4 16.1 0 .6 3 3.7 6.8 6.8l6.7 5.7-4.5-.6c-2.5-.3-5.4-.9-6.3-1.3-1.4-.5-1.1 1.2 1.9 9.7 4.3 12.5 5 13.9 6.9 13.9 2.3 0-8.2 18.7-28.5 51-6.4 10.2-13.8 22.1-16.5 26.5-2.6 4.4-8.1 13.6-12.2 20.3l-7.4 12.4 1 14.1c1.1 13.9 1.8 28.7 4.2 86.6 1.4 32.6 1.8 31.1-7.8 31.1-7.5 0-8.8-1.6-9.7-12.1-1.1-13.2-3.3-13.4-6.6-.6-1.1 4.3-2.2 8.2-2.5 8.7-.6.9-6.4.3-7.7-.9-.4-.3-1.2-3.6-1.8-7.3-2.7-16.9-11.8-44.8-16.5-50.3-1.6-2-1.6-1.9-1.1.6 2.5 11.9 4.8 41.5 3.9 50.3-.6 5.4-.7 5.6-3.6 5.6-2.3 0-4.1-1.1-7.2-4.3-6.1-6.4-8.3-9.8-12.7-20-4.1-9.4-12.6-24.7-13.9-24.7-.3 0 .7 5.3 2.3 11.7 2.7 11.2 5.2 33 3.9 34.5-.8.9-10.2-1.1-11.9-2.4-.7-.6-1.9-3.4-2.7-6.2-.8-2.8-2.6-6.9-3.9-9l-2.4-4-.3 8.6c-.2 4.8-.7 9-1.1 9.3-.8.8-5.6 1-6.4.3-.3-.3-1.5-4.5-2.9-9.4-1.3-4.9-3.4-11.2-4.7-13.9l-2.3-5-.3 13.2-.3 13.3h-4.2c-2.3 0-4.8-.4-5.4-.8-.7-.5-2.2-3.7-3.4-7.2-1.1-3.5-3.5-8.6-5.4-11.4-3.9-6.1-13-15.2-13.9-13.8-.3.5-1.3 5.2-2.1 10.3-.9 5.2-3.2 17.2-5.1 26.8-1.9 9.5-3.4 17.4-3.2 17.5.2.2 10.7.8 23.3 1.5 32.9 1.7 78 6.5 76.9 8.2-.8 1.4-13.5 9.9-21.5 14.4-6.6 3.8-8.7 4.5-13.1 4.5-6.1 0-18-1.3-31.3-3.5-10.6-1.7-39.5-4.8-40.1-4.2-.2.2-1.3 5.3-2.5 11.3-1.1 6-3.4 17.8-5 26.1-1.6 8.4-2.9 15.4-2.9 15.7 0 .9 5.5 1.6 21.1 2.6 23.4 1.5 62.1 5.8 68 7.5 1.3.5 1.7-2.5 2.6-22.7 1.3-27.9 1.8-29.9 8.7-31.7 2.5-.6 11.5-4.5 19.9-8.6 8.4-4.1 16.1-7.5 16.9-7.5 2.2 0 5.8 4.7 5.8 7.6 0 1.6-1.2 2.9-4.2 4.6-4.7 2.6-6.8 5.2-5.3 6.7 1.8 1.8 17.8 3.3 27.5 2.7 13.9-1 20.6-2.4 27.2-5.7 6.4-3.2 5.7-3.3 21.1.9 8.3 2.2 9.6 2.8 8.2 3.8-.9.7-3.3 1.5-5.3 1.9-9.7 1.7-35.2 9-39.5 11.3l-4.9 2.6-6.1-2.2c-8-2.8-27.8-7.6-42.6-10.3-6.4-1.1-12.2-2.6-12.9-3.1-.9-.8-1.6-.8-2.4 0-1.2 1.2-3.3 42.9-2.3 47.9.7 3.7-.7 3.2 21 7.8 23.5 4.9 23.8 5 43.5 10.6 22.4 6.4 25.8 7.7 27 10 .9 1.5.5 2.1-2.1 3.5-4 2-9.3 1.4-25.6-2.8-29.6-7.6-43.9-10.8-58.3-13.2-18.5-3.1-45.2-6.7-45.7-6.2-.2.2-.7 12-1.1 26.2l-.7 25.9-2.9.3c-1.6.2-3.2 0-3.7-.5s-1.4-12.8-2-27.4c-.6-14.5-1.2-26.5-1.3-26.6-.5-.5-44.8-3.4-48.6-3.1l-4.5.3-.8 5c-1.1 6.6-7.3 39.3-9.9 52.5-1.1 5.8-2.6 16.9-3.3 24.7-.6 7.9-1.3 14.5-1.6 14.7-.5.6-44.9-2-59.2-3.4-40.3-3.8-46.4-4.6-47.3-6.1-.3-.6 2.8-4.3 6.9-8.3 8.1-7.9 14.3-16.4 12.8-17.9-.5-.5-2.5-1.2-4.5-1.7-4.1-.9-5.7.1-24.2 15.7-10.6 9-11.5 9.3-19.7 6.8-2.7-.8-10.8-2.6-18-4.1-13.6-2.6-31.8-7.5-44.7-11.9-4.1-1.4-8.2-2.5-9.2-2.5-2.3 0-2.4-2.6 0-3.8.9-.5 5.9-2.1 11-3.6 5.2-1.4 11.8-3.8 14.7-5.1 2.9-1.4 7.7-3.4 10.7-4.4 4.4-1.5 5.3-2.2 5.3-4.2 0-1.9-1-2.9-4.5-4.6-2.5-1.2-5.3-2.5-6.3-2.8-1.7-.5-1.5-1.1 1.8-7.1 2-3.6 3.5-6.7 3.3-7-.2-.2-4 1-8.3 2.7-4.3 1.6-9 2.9-10.3 2.7-2.7-.3-6.8-5-5.8-6.6.3-.5 6.5-2.9 13.6-5.2 9.6-3 13.4-3.9 14.4-3.1.9.8 1.8.5 3.3-1.2 2.8-3.2 8.3-11.2 12.8-18.7 3.4-5.8 20.1-32 26.1-41.1 1.3-1.9 2.4-3.8 2.4-4.2 0-2.3-19 1.2-28.3 5.2-6.2 2.7-8.7 2.6-16.7-.3-3.6-1.4-12.5-4.3-19.8-6.5-7.3-2.3-14.5-4.7-16-5.5l-2.7-1.4 4-1c66.8-17.3 75.1-18.4 85.4-11.2 4.1 3 4.4 3 6.2 1.4 1.1-1 5.1-7 9.1-13.3 3.9-6.4 10.6-16.5 15-22.4 4.4-5.9 11.8-17.2 16.5-25 4.7-7.8 10-16.2 11.8-18.7 1.8-2.5 5.4-8.1 8-12.5 6-9.9 32.8-49.2 41-60 7.4-9.8 10.1-15.7 8.6-19.4-2.8-7.1-3.1-19.5-3.1-147.7V114.3l-15.7-4.3c-8.7-2.3-17.5-4.2-19.6-4.2-2.1 0-8.3 1-13.8 2.3l-9.9 2.2v90.5l-3.2.7c-1.8.4-4.1.9-5 1.1-1.2.4-3.4-1.3-6.9-5-3-3.2-7.5-6.7-10.7-8.3-5.4-2.6-5.6-2.7-13.6-1.4-10.7 1.7-14.9 2.3-41.7 5.9-12.5 1.7-24.4 3.5-26.6 4.1-2.2.6-9.8 1.7-16.9 2.5-7.1.8-14.1 1.9-15.5 2.4-5.7 2.2-9.9 10.1-9.9 18.7 0 2.2-.5 5.8-1 7.9l-.9 3.9 9.4-.6 9.4-.6.7 4.5c.8 5.5.9 5.4-10.2 8.4l-8.4 2.2v7.6c0 4.3.5 9.4 1.1 11.5 2.1 7.9 11.1 14.6 19.4 14.7 2.1 0 8.4-1.1 14-2.5 5.5-1.4 15.7-3.1 22.6-3.9 6.9-.7 13.6-1.9 14.8-2.6 1.3-.6 2.6-.9 2.9-.5 1.7 1.7 3.1 106.4 1.6 112.2-.3 1.2-1.4 2.5-2.3 2.8-2.5.8-39.6 5.5-43.4 5.5-4.5 0-7.5 2.4-10.3 8.4-3.8 8.2-2.7 15.2 3.6 21.9 4.8 5.2 5.2 5.2 34.5-.1 25.1-4.6 26.5-5.1 30.2-12.2 2.7-5 3-10.9.8-17-1.3-3.6-1.5-13.4-1.5-63.4v-59.2l7.3-1.6c3.9-1 10.6-2.2 14.7-2.9 4.1-.6 10.6-2 14.4-3 8.8-2.3 14.1-7.2 18.6-17 3.5-7.7 4.4-8.6 6.5-6.9 1.3 1.1 1.5 17 1.3 120.7l-.3 119.5-5.8 1.8c-3.2 1-6.3 2.3-7.1 2.9-.7.6-1.5.8-1.9.5-.6-.6-11 12.1-14.5 17.8-1.2 1.9-3.3 6.5-4.7 10.1-3.2 8.5-4.6 10.7-6.7 10.7-1.5 0-1.8-.9-1.8-6.2 0-7.4-1-6.8-4 2.2-2.9 8.8-4.2 10-10.3 10h-5l.6-4.8c.4-2.6.9-8.8 1.3-13.7l.6-9-2 2c-1.6 1.6-9.3 18.6-12.5 27.7-.5 1.4-1.8 1.8-5.6 1.8h-5l.5-6.8c.2-3.7.9-13 1.4-20.8 1.4-19.9 1.4-19.7-1.4-15.1-3.1 5.1-5.9 14.3-9.2 30.2-1.4 7.1-3.2 14-3.9 15.1-.8 1.2-2.7 2.4-4.4 2.6l-3 .4-.6-8.5c-.9-13.7-1.6-17.8-3-19.7-1.2-1.7-1.4-1.5-2.4 2.1-2 6.9-6.1 25.7-6.1 27.6 0 1.5-.8 1.9-3.5 1.9-1.9 0-3.5-.1-3.5-.3-.2-3.6-4.4-19.7-6.3-24-4.7-10.4-6-7.1-4.5 11.9 1.1 15.2.8 16.4-4.8 16.4H292l-.1-5.3c-.1-2.8-.4-6.3-.8-7.7-.7-2.4-.8-2.4-1.8-.5-2.7 5.2-4.6 18.4-4.7 33-.1 10.6-.5 15.7-1.5 17.4l-1.3 2.3-2.2-2.1-2.1-2.2-.1-221.6-.1-221.7-12.9-3.8c-22.3-6.6-20.8-6.4-34.4-3.8l-12 2.3v68.6l2.3.6c4.8 1.4 13 8.1 19.2 15.7 3.6 4.5 6.4 8.2 6.2 8.5-.2.2-1.7-.1-3.2-.7-3.4-1.3-9.7-1-9.2.5.2.5 3.5 1.1 7.4 1.3 6.6.3 7.2.5 10.7 4.1l3.8 3.8-8.7.8c-8.6.7-8.6.7-8.3 3.3.4 3.3 2.3 3.7 12.5 2.7l7.3-.7-.2-47.5-.3-47.6-13-4.9c-7.1-2.7-11.9-4.6-10.5-4.3 16.6 3.8 20.9 4.6 25.8 4.9l5.7.4.6 30.9c.3 16.9.4 49 .2 71.3-.1 22.3-.2 41.2-.2 42 .5 52 .6 175.9.2 227.2l-.6 68.8H258l-.2-122.8c-.1-67.5-.2-123.9-.1-125.5.1-1.5-.1-2.7-.3-2.7-.2 0-1.5 2-2.9 4.4-7.5 12.8-24 28.8-32.6 31.6l-3.9 1.3v96.3c0 94.2 0 96.4-1.9 97.4-3.8 2-6 1.2-6.5-2.3-.3-1.7-1.7-11.1-3.1-20.7-1.5-9.6-4.1-23.8-6-31.5-1.9-7.7-4.1-17.5-5.1-21.8-.9-4.3-1.8-7.6-2-7.4-.2.2.3 4.4 1.1 9.3 1.8 11 3.5 38.2 3.8 61.4l.2 17.5H196c-2.4 0-2.6-.6-5.2-12.7-4.3-20.5-15.5-45.2-30.1-66.8-8-11.7-20.5-26.4-27.2-32-3.4-2.9-3.3-2.8 5.5 10.5 19.6 29.4 31.7 57.3 37.5 86.5 3 15 3.5 20.5 1.8 20.5-.7 0-4.4-6.2-8.2-13.9-14.7-29.1-33-52-53-66.4-5.6-4.1-6.9-4.1-3.6 0 8 9.9 20.9 27.4 24.6 33.4 8.6 13.9 21.9 44.7 21.9 50.5 0 1.6-5.3 6-7 5.8-.3 0-1.8-2.7-3.3-5.9-5.2-10.9-16-23.7-28.1-33-1.1-.9-.3 1 1.9 4.5 5.4 8.4 13.1 24.9 15 32 1.7 6.7 1.1 8-4.1 9.1-2.8.5-3.1.3-5.3-4.3-1.2-2.6-3.6-6.4-5.2-8.3l-3.1-3.5.7 6c.3 3.3.9 8.1 1.2 10.6l.5 4.6-4.1 1.6c-2.3 1-5 1.7-6.1 1.7-1.1 0-2 .5-2 1 0 3.8 7.6 35.2 11.5 47.5 32.5 102.5 100.9 183.1 197 232 34.2 17.4 69.1 29.4 108.9 37.5 66.5 13.5 123.7 11.7 192.2-6 85.6-22.1 157.9-68.9 211.6-137 19.6-24.9 31.5-43.5 44.2-69 16.4-32.9 25.1-57.3 34.7-97.3 2.3-9.7 2.3-9.7-.1-9.7-3.1 0-4.2-4.3-3.5-13.5.8-10 3-19.4 9.5-40.9 2.8-9.3 4.9-17 4.7-17.2-.6-.6-11.1 15.5-14.3 21.7-3.4 6.7-10.7 26.6-12.4 33.7-.9 4-1.6 5.2-2.9 5-1.4-.3-1.6-1.9-1.5-11.3.4-27.4 6.8-66.2 15-90.5 4.1-12.1 15.3-40 19-47.2 2.5-4.9 2.6-6.7.5-5.3-1.7 1-10.3 14-14.9 22.5-5.7 10.7-13.6 29.9-19.7 48.5-5.7 17.2-10 36.5-13.6 61.7-1.5 10.4-2.7 15.8-3.5 15.8-4.4 0-3-44.9 3.1-93.2 6.1-48 16.4-80.7 44.9-142.3 3.1-6.6 5.6-12.7 5.6-13.5 0-2.5-7.9 6.1-14.2 15.5-16.4 24.5-35.2 70.9-44.8 110.9-6.9 29.1-13.2 88.9-11.7 111.3.5 6.3.3 8.3-.7 8.3-3 0-4.5-3-6.7-12.8-2.6-11.9-3.9-11.7-3.9.5v8.3h-3.4c-1.9 0-3.7-.4-4.1-.9-1.1-1.9-3.5-59.3-3.5-85.7v-27.1l-7-9.1-7.1-9.1 2.6-1.7c5.4-3.5 7.1-8.6 14-40.9 13.9-65.1 15.9-77 15.3-86.9-.3-4.9-.3-5 3-5.7 4.4-.9 10.8-7.2 12.9-12.7 1.4-3.9 1.5-5.2.4-10.6-.7-3.3-2.9-9.5-4.9-13.6l-3.7-7.5.8-22.5c.5-12.4.5-32.1.2-43.8l-.7-21.2-5.2-1.4c-31.7-8.8-43.9-11.9-64-16-27.1-5.7-39.7-6.5-57.1-4l-4 .6 5-4.6 5-4.6-5 .6c-2.7.3-8.1 1.2-12 2-3.8.8-8.6 1.7-10.5 2l-3.5.6 4.4-2.6c2.3-1.4 4.8-2.6 5.4-2.6.8 0 .8-.3.1-1-.6-.6-4.8-1.5-9.5-2-4.6-.5-11.5-1.8-15.4-2.7l-7-1.8-6.1-12.4c-4.1-8.4-6.8-12.8-8.5-13.6-1.3-.7-6-2.1-10.4-3-4.4-.9-8.2-1.9-8.5-2.2-.3-.3.4-1 1.5-1.7 3.6-2.1 7.6-6.6 6.9-7.7-.4-.8-2.5-1-6-.6-4.3.4-5.2.3-4.7-.9.4-1.1-.5-1.4-4-1.4-3.2 0-6.5 1-11.1 3.4zm-177.1 19.7c6.1 1.1 14.3 2.3 18.3 2.6l7.2.6v146.6c0 114.4-.3 147.1-1.3 149-.6 1.3-2.2 3-3.4 3.9-2.1 1.3-2.3 1.2-3.4-1.4-.9-2.2-1.1-39.8-1-145.7.1-78.5-.2-143.9-.5-145.2-.6-2.4-1.2-2.7-21.9-10-8.5-3-8-3 6-.4zm-52 76.5c3.3 2.2 12 14 14.6 20 1.5 3.2 2.3 7.7 2.7 13.5.4 7.4.1 9.8-1.8 15.3-1.3 3.5-3.4 7.7-4.7 9.3-1.4 1.6-2.2 2.1-1.9 1.1 2.1-7 3.7-18 3.1-22.8-1.4-12.2-4.6-20-12.4-30.3-2.7-3.6-4.7-6.8-4.3-7.1.9-1 2.1-.7 4.7 1zm-9.7 8.9c11.8 13.4 14.5 35.5 6.2 50.4-3 5.2-5.5 6.4-3.5 1.7 2.9-6.8 3.8-16.4 2.6-25.3-1.4-10-4.3-16.8-11.2-27l-5-7.4 3.9 2c2.1 1.1 5.3 3.6 7 5.6zm416.1-3.3 16.6 1.2 5.3 26.5c6.9 34.9 6.9 34.7 4.7 37.1-1 1.1-2.1 2-2.5 2-1.1 0-13.6-19.5-22.6-35-10.1-17.7-17.1-28.9-19.8-31.9-1.9-2.2-1.9-2.3-.2-1.8 1 .4 9.3 1.2 18.5 1.9zm-435.2 1.3c3.3 2.3 9.3 11 11.4 16.6 2.8 7.3 4 17.3 2.9 24.8-.9 6.6-6.3 19.1-8.2 19.1-.6 0-.7-.7-.3-1.8 2.8-6.4 3.6-12.3 3.2-22.7-.5-12.8-2.6-19.3-9.1-28.8-2.3-3.4-4.5-6.8-5-7.5-1-1.7 2.4-1.6 5.1.3zm-13.7 4.4c11 11 16 30.9 11.4 44.8-1.7 5.1-7.3 14.7-8.1 13.9-.3-.3.4-2.9 1.5-5.9 5.7-15.2 2.9-34-7.2-48.9-6-8.8-5.9-8.8-4.1-8.8.9 0 3.8 2.2 6.5 4.9zm-17.9-.4c4.9 3.7 10.6 12.6 13.1 20.9 2.7 8.6 2.8 20.8.4 27.6-1.9 5-6.6 13.4-7.2 12.7-.2-.2.6-4.1 1.7-8.8 4.5-17.6-.3-37.9-12.3-51.4-2.6-3.1-2.8-3.5-1.1-3.5 1.1 0 3.5 1.1 5.4 2.5zm-11.5 7c7.7 8 10.8 16.2 10.8 29 .1 12-2 19.7-7.1 25.2-1.9 2.1-3 2.9-2.4 1.8 2.2-4.7 4.3-15.4 4.3-22.4 0-12.9-3.4-22.5-11.8-33.3-2.4-3.1-4.4-5.9-4.4-6.2 0-.4 1.2-.4 2.8 0 1.5.3 5 3 7.8 5.9zm-17.1 1.9c9 9.2 13.1 20.9 12.3 34.7-.4 6.8-1.1 9.1-4.4 15.6-5.1 10-7 10.6-3.7 1.1 4.4-12.6 3.2-28.6-3-41.3-1-2.2-4.2-6.6-6.9-9.8-4.8-5.6-4.9-5.7-2.3-5.7 1.9 0 4.2 1.6 8 5.4zm138-1c2.7 7.1 2.1 7.9-6.9 9.3-4.3.7-9.2 1.7-10.9 2.2-1.6.6-3.3 1.1-3.7 1.1-.9 0-2.4-3.6-4.3-10.5l-1.4-5 4.6.3c2.5.1 6.6-.1 9.1-.7 2.5-.5 6.2-.9 8.2-1 3.4-.1 3.7.2 5.3 4.3zm132 84.8c3.8 1.9 5.8 3.8 4 3.8-1 0-10.5-5-10.5-5.5 0-1 2.1-.4 6.5 1.7zm-12.4 10.2c6.8 2.9 15.9 11.6 15.9 15.4 0 2.2-7 4.5-11.8 3.8-8.8-1.2-14.8-6.3-17.2-14.7-.8-2.8-.7-3.6.7-4.7 2.2-1.6 8.3-1.5 12.4.2zm210.4 56.8c-.3 7.9-1 28.9-1.5 46.8-1 37-1.7 30.2 9 93 5.1 29.8 10 53.1 12.5 59.2 1.2 3-1.7 3.1-12.6.4-5.7-1.4-11.4-2.6-12.6-2.6-2.4 0-3.2-2.7-5.9-20.4-.8-5.5-1.9-10.5-2.3-10.9-.9-.9-2.6 7.6-3.6 17.8-1 9.7-1.3 10.5-3.9 10.5-3.1 0-4-1.3-6.1-8.5-1.8-6.3-5.3-13.7-8-17-1.5-1.9-1.6-1.5-1 6 .3 4.4.9 10.4 1.2 13.2.6 5.2.5 5.3-2.1 5.3-1.5 0-4.3-.7-6.3-1.5-1.9-.8-5.5-1.5-7.9-1.5-2.3 0-4.5-.3-4.7-.8-.2-.4.2-14 .9-30.2 1.3-30.6 3.5-58 5.8-73.5 1.6-10.2 1.4-10.9-4.6-17.1l-3.9-4.1 4.6-2.4c3.1-1.6 11-9.2 24-22.9 16.5-17.2 19.8-21.3 21.6-25.9 2.2-6.1 5.4-17.6 6.4-23.4 1.2-7.4 1.6-3.4 1 10.5zM361 393c4.1 4.1 5.5 13.4 2.4 16.4-2.4 2.4-3.3 1.9-2.2-1.2 1.2-3.1.6-6.7-1.4-9.5-1.2-1.6-1.8-1.6-9.1-.2-9 1.7-21.7 2-21.7.5 0-.6.4-1 .8-1 3.6 0 24.1-4.4 25.7-5.5 2.7-1.9 3.2-1.8 5.5.5zm-37.6 4.4c3.5 3.3 3.7 3.8 3.4 8.7-.4 6.6-2.3 7.5-3.2 1.5-.4-2.5-1.8-6.6-3.1-9.1-1.4-2.5-2.1-4.5-1.7-4.5.5 0 2.5 1.5 4.6 3.4zm-18 196c8.1 1.4 15.4 3.1 16.2 3.7 2 1.6 1.6 49-.4 49.7-.7.2-1.9-1.2-2.7-3.2-1.2-2.7-1.5-8-1.5-22.6 0-18.2-.1-19-2-19-3.8 0-13.1 4.2-21.7 9.9-14.4 9.5-18.3 14.7-18.3 24.4 0 3.9-.4 5.6-1.5 6-2.1.9-23.7 2.5-41.3 3.2-12.5.5-15.3.4-15.8-.8-.8-2.3 2.3-15.1 4.9-20.3 4.1-8 7.7-11.9 17.2-18.9 11.2-8.3 12.9-9.2 24-12.7 8-2.5 10.1-2.8 18.5-2.3 5.2.2 16.2 1.5 24.4 2.9zM764 598c18.7 9.4 31 23 34.5 38.4 1.3 5.7 1.4 7.1.3 7.8-1.4 1-47.2.1-56.3-1.1l-5-.6-.6-5.8c-.8-7-4.1-12.2-11.1-17.4-5.1-3.7-23.7-12.4-25-11.6-.5.2-.8 7.3-.8 15.7 0 11.3-.4 15.7-1.4 17.1-1.3 1.8-1.4 1.7-3.1-.8-1.5-2.3-1.7-4.6-1.3-17.4.3-8.2.8-15.5 1.2-16.4.5-1.2 2.7-1.8 7.4-2.3 3.7-.4 9.6-1.4 13.2-2.2 3.6-.8 11-2.4 16.5-3.4 5.5-1.1 12.3-2.6 15-3.4 2.8-.8 5.3-1.5 5.8-1.5.4-.1 5.2 2.1 10.7 4.9zm-480.1 58.4c6.3 5.8 16.4 12 25.4 15.6 3.1 1.2 5.7 2.6 5.7 3 0 2.1-5.4 4.6-21.6 10.1-20.6 6.9-19.4 6.9-34.9-.8-10.9-5.5-15.1-8.4-26.5-17.9-4.9-4.1-9.3-7.4-9.9-7.4-1.7 0-1.3-1.7.6-2.4 2.7-1.1 40.9-5.1 51.1-5.5 3.8-.1 4.8.4 10.1 5.3zm487.1-1.8c6.9.8 14.7 1.7 17.3 2 8.1 1 7.7 5-1 9.4-2.8 1.4-7.5 4.4-10.4 6.6-7 5.4-20.9 12.7-28.2 15-5.6 1.7-5.9 1.7-14.5-.4-4.8-1.2-13.9-3.4-20.2-4.8-12.1-2.8-17.4-4.8-16.8-6.5.2-.6 3.3-2 6.8-3.2 7.1-2.4 15.7-7.9 24.7-15.8l5.8-5.1 12 .7c6.6.3 17.6 1.3 24.5 2.1zm-90.2 11.8c1.2 1.1 1 2.2-.9 6.5-2 4.8-5.2 8.1-6.2 6.4-1.1-1.8-1.8-9.5-1.2-12.4.7-2.9 1-3.1 3.8-2.5 1.8.4 3.8 1.3 4.5 2zm-459.6 18.3c1.9 2.7 6.6 7.3 10.4 10.4 7.5 6.1 24.8 16.9 32.9 20.5 4.7 2 22.1 8.4 23.1 8.4.2 0 .4-3.2.4-7.1 0-6.1.2-7 1.4-6 .8.7 2 4.4 2.6 8.2 1.5 8.7 1.7 8.9 20.3 14.6 22 6.8 68.4 17 70.1 15.3.5-.5 1.7-.3 3 .5 1.1.7 5.7 2 10.1 2.8 7.7 1.5 11.8 1.9 47.5 5.3 20.2 1.8 59 3.1 59 1.8.1-4.5 2.2-23.9 2.8-24.9.5-1 1.5-.7 4.1 1.4 3.4 2.8 3.4 3 4.2 13.2.4 5.7.8 10.6.8 10.8.2 1.1 43.7-1.1 64.1-3.3 26.5-2.8 51.3-5.8 51.9-6.2.2-.2.7-3.5 1.1-7.4.4-3.9 1-7.3 1.2-7.5.2-.3 1.5-.6 2.8-.7 2.5-.3 2.9.6 4.5 10.5.3 2.1 1 3.5 1.5 3.2.4-.3 4.6-1.2 9.2-2.1 14.7-2.7 54-13.1 62.8-16.5 9.3-3.8 9.7-4.3 9.9-13.4.1-2.8.8-7.1 1.6-9.8.8-2.6 1.3-4.7 1.2-4.7-.9 0-15.9 4.4-21.9 6.4-7.7 2.6-39.1 10.7-49.3 12.7l-6 1.2-8.5-5.3c-6.8-4.2-25.1-16.2-26.9-17.7-1.1-.8 1.8-1.7 15.1-4.3 18.8-3.7 42-9.5 45.6-11.4 2.6-1.4 3.6-1.2 14.8 2.4 6.5 2.1 16.4 5.2 22 6.9 5.5 1.8 11.4 4 13.1 5.1l3.1 1.8.1 11.3c.1 6.2.4 11.5.6 11.7.8.8 17.3-5.2 27-9.8 10.6-5.1 27.8-16.1 33.3-21.3 1.9-1.8 4.7-5.1 6.4-7.5 3.2-4.7 4.2-4.7 5.1-.2 1.2 5.9-.3 9.2-7.7 16.5-8 7.9-17.4 14.5-30.3 21.3l-8.8 4.7-.3 26.2c-.1 14.5.1 26.3.6 26.3 3.3 0 31.6-18.9 40.5-27 3-2.7 5.8-5 6.1-5 1.2 0 .6 8.1-.8 10.8-2.4 4.7-22.6 21.3-35.1 28.9-12.2 7.3-59.9 27.3-65.4 27.3-1.6 0-1.9 1.5-2.4 12.2-.4 6.6-.7 16.4-.7 21.7 0 5.3-.3 11.9-.6 14.8-.7 5.1-.7 5.1-4.5 5.5l-3.9.4-.2-4.6c0-2.5-.1-13.3-.2-24.2-.1-10.8-.4-19.9-.8-20.3-.3-.4-4.1.5-8.5 1.8-4.3 1.4-13.2 3.7-19.8 5.1-6.6 1.5-15.8 3.5-20.5 4.6-25.6 5.8-82 12-109.5 12h-13.2l-.7 24c-.4 13.2-1.1 25.2-1.5 26.7-.6 2.2-1.5 2.9-4.4 3.4-2 .3-3.8.5-3.9.5 0-.1-.4-11.9-.7-26.3-.3-14.4-.9-26.4-1.2-26.7-.3-.4-12-1.1-25.9-1.6-27.7-1.1-41.8-2.5-70-7-21.4-3.4-55.2-10.7-68.9-15-5.2-1.7-10.2-3-11.1-3-1.3 0-1.6 2.3-1.7 16.2-.3 18.7-1.2 32.8-2.2 32.8-.4 0-1.8-1.4-3.1-3.2-2.4-3.3-2.6-4.8-4.8-38.8l-.7-11.4-4-1.5c-6.5-2.3-36.2-15-46-19.7-16.2-7.7-39.6-24.9-44.3-32.6-1.1-1.8-2.3-5.5-2.7-8.2-.7-4.5-.6-4.7 1.1-3.8 1.1.6 3.7 2.9 5.8 5.2 5.5 5.7 17.3 13.9 29.6 20.5 5.7 3 10.4 5.5 10.4 5.5.1 0 0-11.7-.2-26l-.3-26-5.2-2.6c-10.2-5.2-25.3-16-34-24.4-8.7-8.5-8.7-8.5-8.7-13.6 0-8.1 2.2-8.6 7.2-1.7zm382.5 22c3.9 3.2 10.5 8.4 14.7 11.7 6.6 5.1 9.4 8.6 6.9 8.6-.5 0-3.5.5-6.8 1-29.5 4.7-95 9-97.4 6.4-1.4-1.4-10.1-24.1-10.1-26.1 0-1.6 1.4-1.8 15.7-2 17.5-.2 42.1-1.8 56.4-3.7 5.2-.7 10.4-1.4 11.5-1.5 1.3 0 5 2.3 9.1 5.6z"/><path d="M272 758.4v26.4l15.4 6.5c18.9 8.1 49.8 18.3 71.5 23.7 16.2 4.1 39.6 8.2 40.6 7.2.5-.5.8-57.2.3-57.2-9.7-1.4-57.6-11.7-73.8-15.9-12.9-3.3-40.7-12.4-49.8-16.1-1.3-.6-2.7-1-3.2-1-.6 0-1 10.3-1 26.4zM726.5 737.5c-16.9 6.5-32.9 11.3-53 15.9-17.3 4-52.8 10.6-56.9 10.6h-2.8l.4 28.4c.2 15.6.5 28.7.8 28.9.9.9 28-4.2 47-8.8 25.5-6.3 53.7-15.7 72.3-24.3l8.7-4.1v-26c0-20.3-.3-26.1-1.2-26-.7.1-7.6 2.5-15.3 5.4zM411.7 788.3c-.3 12.8-.3 26.3.1 30.2l.7 7 8.5 1.2c42.1 5.7 113 5.6 164-.3 7.4-.8 14.3-1.7 15.3-2 1.5-.5 1.7-2.2 1.7-16.7 0-8.9-.3-22-.7-29.1l-.6-12.9-8.1.7c-4.5.4-12.4 1.3-17.6 2.1-5.2.7-15.3 1.9-22.5 2.4-17.5 1.5-74.5 1.6-92.5.2-14.7-1.1-45.8-4.8-47-5.6-.4-.2-1 10-1.3 22.8zM173.3 198c-12.3 1.8-26.2 11.8-34.3 24.7-5.3 8.2-7.5 13.5-10.7 24.8-4.6 16.7-4.3 53 .7 64.2 1.7 3.8 1.9 7.2 1.9 33.7.1 25.6-.1 29.7-1.5 31.1-1.5 1.4-1.4 1.9 1.2 5.2 3 3.9 4.8 14.3 2.5 14.3-.6 0-1.1-1-1.1-2.3 0-4.2-2.1-9.8-4.9-12.9l-2.7-3.1-17 1.2c-11.3.8-17.6 1.7-19.1 2.7-7.9 5.1-8.2 17.7-.7 24.4 4.3 3.8 6.1 3.8 21 0 6.6-1.6 14.3-3 17.2-3 4.9 0 8.9-1.2 10.2-3 .3-.4 2.4-1.9 4.6-3.3l4.1-2.6.8-29.9c.4-16.5 1.1-30.5 1.5-31.2.4-.7 1.1 2.8 1.5 7.9.6 7 1.2 9.7 2.9 11.8 4 5.2 8.1 8.3 16.1 12.4 7.1 3.5 9.1 4.1 17.1 4.6 10.6.7 17.4-.9 27.2-6.3 3.4-2 8.8-4.2 12-5 3.1-.8 6.7-2.1 7.8-2.9 2.7-1.8 9.9-10.4 9.2-11.1-.3-.2-3.9 1.9-8 4.8-7.6 5.4-11.4 7.8-12.2 7.8-.3 0 2.1-3.5 5.3-7.8 6.7-8.8 9-13.2 13-24.1 10.7-28.7 6.8-66.1-9.8-94.5-6.1-10.5-18.3-23.4-25.8-27.3-8.8-4.6-20.5-6.7-30-5.3zm6.3 61.8c-1.6 1.5-6-1.8-12.1-9-3.8-4.5-9-10.1-11.4-12.4l-4.4-4.3 2.6-3.5c5-6.5 12.7-11.9 20.2-14.1l4-1.2.8 22c.4 12.1.5 22.2.3 22.5zm18.9-38.5c4 2 15.5 13.3 15.5 15.2 0 .8-4.2 5.9-9.3 11.3-5.1 5.3-9.9 10.6-10.5 11.7-2.4 4.2-3.2-.8-3.2-21.1 0-11 .3-20.4.7-20.7.3-.4 1.3-.1 2.2.7.9.7 3 2 4.6 2.9zm-42.3 37c9.5 10.7 11.7 14.2 10.1 15.8-1.1 1.1-26.1 6.4-26.7 5.8-.4-.4.8-8.1 3.5-24.6 1.6-9.9 1.5-10 13.1 3zm67.2-4.7c1.3 3.4.4 5.6-3.8 9.9-3.7 3.7-11.1 8.5-13.1 8.5s.9-4.7 9.3-14.8c4.6-5.4 6.6-6.3 7.6-3.6zm6.2 30.6c-.4 1.3-1.1 8.4-1.6 15.8-.4 7.4-1.4 14.8-2 16.5l-1.2 3-4.1-5c-2.3-2.7-7.7-8.9-11.9-13.7-7.8-8.6-9.5-12.6-6.5-14.5 1.2-.8 19.8-3.9 25.1-4.2 2.5-.1 2.8.2 2.2 2.1zm-60.5 11c1.2 2.9 1.1 3.2-1.2 4.7-4.1 2.7-10.7 9.1-11.1 10.9-.3.9-.2 2.5.1 3.5.5 1.4 1.9.4 7.6-5.3 5.7-5.8 7.5-7 10.2-7 1.7 0 3.4.4 3.7.8.7 1.3 1.4 41.4.7 44l-.6 2.3-6-3.6c-7-4.2-11.4-8.2-15.2-13.9-1.6-2.3-4.4-6.2-6.4-8.7-3.4-4.5-3.6-5.1-4.3-15-.3-5.6-.3-10.6.2-11.1.7-.7 16.3-4.4 19.8-4.7.6-.1 1.7 1.3 2.5 3.1zm31.4 17.2c8.2 6.6 14.6 13.5 16.6 18 1 2.2.8 2.9-1.6 5.8-4.2 5.1-9.7 9.2-16.5 12.2-5.1 2.3-6.4 2.6-7.1 1.5-.9-1.5-.8-43.9.1-43.9.3 0 4.2 2.9 8.5 6.4zM98 387.5c2.1 3.4 2.8 8.1 1 7-1-.6-6-9.8-6-10.9 0-1.5 3.2 1 5 3.9z"/><path d="M219 295.1c0 15.6 5.4 14.3 7.6-1.9l.7-5.2H219v7.1zM225 215.2c0 1.3 6.8 4 8.1 3.2 1.6-1-.3-2.4-4.5-3.4-2.2-.5-3.6-.4-3.6.2zM246.5 249.9c-2.6.5-3 1-2.7 3.6.6 4.6 1.6 5.1 7.7 3.1 6.1-1.9 7.9-4.1 5-6.2-2-1.5-5-1.6-10-.5zM250.3 265.7c-1.9.4-2.3 1.1-2.3 4v3.5l5.8-.7c6.5-.8 8.4-2 8-4.9-.3-1.8-1.1-2.1-4.8-2.2-2.5-.1-5.5 0-6.7.3zM251.5 281.9c-1.6.3-3 1.2-2.9 1.9.1.6.2 2.1.3 3.2.1 2.3 4.1 2.7 8.8.9 3.1-1.2 4.3-2.6 4.3-5.2 0-1.3-.8-1.7-3.7-1.6-2.1.1-5.1.4-6.8.8zM248.8 302.2c-.3 2.4-.3 4.5-.1 4.7.5.7 9.5-1.8 11-3.1.7-.6 1.3-2.1 1.3-3.4 0-2.3-.4-2.4-5.9-2.4h-5.9l-.4 4.2zM249 315.7c-3.5.7-5 2.2-5 5.1 0 2.3.2 2.4 4.3 1.8 5.3-.9 8.7-3.1 8.7-5.6 0-2.1-2-2.4-8-1.3zM243 332.3c-1.4.7-2.6 2.3-2.8 3.5-.5 3.6 4.6 2.9 9.4-1.3l3.9-3.4h-4c-2.2-.1-5.1.5-6.5 1.2zM640.1 369.6c-2.6 3.3-2.7 5.6-.3 7.6 3 2.7 5.5 2.9 9 .8 3.7-2.3 3.9-3.3 1.2-7.8-2.6-4.2-6.9-4.4-9.9-.6zM632.7 426.8c-1 1-1.7 2.5-1.7 3.4 0 2.4 3.7 5.1 7 5.1 3 0 7-2.7 7-4.8 0-.6-1-2.1-2.3-3.3-2.9-2.7-7.8-2.9-10-.4zM173.3 441.2c-5.3 5.7-5.4 9.7-.3 12.3 5.7 2.9 10.9 1.6 12.9-3.4 1.5-3.5-.3-7.8-4.3-10.5-3.6-2.3-4.8-2-8.3 1.6z"/></svg>